HIERARCHY
ROOT hip
{
  OFFSET 0.332914 95.7809 -0.532548
  CHANNELS 6 Xposition Yposition Zposition Zrotation Xrotation Yrotation
  JOINT abdomen
  {
    OFFSET 0 7.2397 0
    CHANNELS 6 Xposition Yposition Zposition Zrotation Xrotation Yrotation
    JOINT chest
    {
      OFFSET 0 16.546 0
      CHANNELS 6 Xposition Yposition Zposition Zrotation Xrotation Yrotation
      JOINT neck
      {
        OFFSET 0 34.2149 0
        CHANNELS 6 Xposition Yposition Zposition Zrotation Xrotation Yrotation
        JOINT head
        {
          OFFSET 0 6.2923 0
          CHANNELS 6 Xposition Yposition Zposition Zrotation Xrotation Yrotation
          End Site
          {
            OFFSET 0 21.2161 0
          }
        }
      }
      JOINT lCollar
      {
        OFFSET 4.0639 26.6115 -1.1234
        CHANNELS 6 Xposition Yposition Zposition Zrotation Xrotation Yrotation
        JOINT lShldr
        {
          OFFSET 14.1772 0 0
          CHANNELS 6 Xposition Yposition Zposition Zrotation Xrotation Yrotation
          JOINT lForeArm
          {
            OFFSET 26.1234 0 0
            CHANNELS 6 Xposition Yposition Zposition Zrotation Xrotation Yrotation
            JOINT lHand
            {
              OFFSET 27.7188 0 0
              CHANNELS 6 Xposition Yposition Zposition Zrotation Xrotation Yrotation
              JOINT lThumb1
              {
                OFFSET 2.2979 -0.4685 1.8313
                CHANNELS 6 Xposition Yposition Zposition Zrotation Xrotation Yrotation
                JOINT lThumb2
                {
                  OFFSET 5.2953 0 0
                  CHANNELS 6 Xposition Yposition Zposition Zrotation Xrotation Yrotation
                  JOINT lThumb3
                  {
                    OFFSET 3.0181 0 0
                    CHANNELS 6 Xposition Yposition Zposition Zrotation Xrotation Yrotation
                    End Site
                    {
                      OFFSET 2.6294 0 0
                    }
                  }
                }
              }
              JOINT lIndex1
              {
                OFFSET 9.3793 0.2991 2.5924
                CHANNELS 6 Xposition Yposition Zposition Zrotation Xrotation Yrotation
                JOINT lIndex2
                {
                  OFFSET 4.3461 0 0
                  CHANNELS 6 Xposition Yposition Zposition Zrotation Xrotation Yrotation
                  JOINT lIndex3
                  {
                    OFFSET 2.1666 0 0
                    CHANNELS 6 Xposition Yposition Zposition Zrotation Xrotation Yrotation
                    End Site
                    {
                      OFFSET 2.2048 0 0
                    }
                  }
                }
              }
              JOINT lMid1
              {
                OFFSET 9.4769 0.8376 0.2947
                CHANNELS 6 Xposition Yposition Zposition Zrotation Xrotation Yrotation
                JOINT lMid2
                {
                  OFFSET 4.772 0 0
                  CHANNELS 6 Xposition Yposition Zposition Zrotation Xrotation Yrotation
                  JOINT lMid3
                  {
                    OFFSET 2.8722 0 0
                    CHANNELS 6 Xposition Yposition Zposition Zrotation Xrotation Yrotation
                    End Site
                    {
                      OFFSET 2.0959 0 0
                    }
                  }
                }
              }
              JOINT lRing1
              {
                OFFSET 8.6586 1.0176 -1.7016
                CHANNELS 6 Xposition Yposition Zposition Zrotation Xrotation Yrotation
                JOINT lRing2
                {
                  OFFSET 4.5461 0 0
                  CHANNELS 6 Xposition Yposition Zposition Zrotation Xrotation Yrotation
                  JOINT lRing3
                  {
                    OFFSET 2.506 0 0
                    CHANNELS 6 Xposition Yposition Zposition Zrotation Xrotation Yrotation
                    End Site
                    {
                      OFFSET 2.2023 0 0
                    }
                  }
                }
              }
              JOINT lPinky1
              {
                OFFSET 7.6901 0.6618 -3.9096
                CHANNELS 6 Xposition Yposition Zposition Zrotation Xrotation Yrotation
                JOINT lPinky2
                {
                  OFFSET 3.2119 0 0
                  CHANNELS 6 Xposition Yposition Zposition Zrotation Xrotation Yrotation
                  JOINT lPinky3
                  {
                    OFFSET 1.924 0 0
                    CHANNELS 6 Xposition Yposition Zposition Zrotation Xrotation Yrotation
                    End Site
                    {
                      OFFSET 1.7829 0 0
                    }
                  }
                }
              }
            }
          }
        }
      }
      JOINT rCollar
      {
        OFFSET -4.0677 26.6109 -1.1234
        CHANNELS 6 Xposition Yposition Zposition Zrotation Xrotation Yrotation
        JOINT rShldr
        {
          OFFSET -14.1772 0 0
          CHANNELS 6 Xposition Yposition Zposition Zrotation Xrotation Yrotation
          JOINT rForeArm
          {
            OFFSET -26.1234 0 0
            CHANNELS 6 Xposition Yposition Zposition Zrotation Xrotation Yrotation
            JOINT rHand
            {
              OFFSET -27.7188 0 0
              CHANNELS 6 Xposition Yposition Zposition Zrotation Xrotation Yrotation
              JOINT rThumb1
              {
                OFFSET -2.2979 -0.4684 1.8313
                CHANNELS 6 Xposition Yposition Zposition Zrotation Xrotation Yrotation
                JOINT rThumb2
                {
                  OFFSET -5.2953 0 0
                  CHANNELS 6 Xposition Yposition Zposition Zrotation Xrotation Yrotation
                  JOINT rThumb3
                  {
                    OFFSET -3.0181 0 0
                    CHANNELS 6 Xposition Yposition Zposition Zrotation Xrotation Yrotation
                    End Site
                    {
                      OFFSET -2.6294 0 0
                    }
                  }
                }
              }
              JOINT rIndex1
              {
                OFFSET -9.3793 0.2991 2.5924
                CHANNELS 6 Xposition Yposition Zposition Zrotation Xrotation Yrotation
                JOINT rIndex2
                {
                  OFFSET -4.3461 0 0
                  CHANNELS 6 Xposition Yposition Zposition Zrotation Xrotation Yrotation
                  JOINT rIndex3
                  {
                    OFFSET -2.1666 0 0
                    CHANNELS 6 Xposition Yposition Zposition Zrotation Xrotation Yrotation
                    End Site
                    {
                      OFFSET -2.2048 0 0
                    }
                  }
                }
              }
              JOINT rMid1
              {
                OFFSET -9.4769 0.8376 0.2947
                CHANNELS 6 Xposition Yposition Zposition Zrotation Xrotation Yrotation
                JOINT rMid2
                {
                  OFFSET -4.772 0 0
                  CHANNELS 6 Xposition Yposition Zposition Zrotation Xrotation Yrotation
                  JOINT rMid3
                  {
                    OFFSET -2.8722 0 0
                    CHANNELS 6 Xposition Yposition Zposition Zrotation Xrotation Yrotation
                    End Site
                    {
                      OFFSET -2.0959 0 0
                    }
                  }
                }
              }
              JOINT rRing1
              {
                OFFSET -8.6586 1.0176 -1.7016
                CHANNELS 6 Xposition Yposition Zposition Zrotation Xrotation Yrotation
                JOINT rRing2
                {
                  OFFSET -4.5461 0 0
                  CHANNELS 6 Xposition Yposition Zposition Zrotation Xrotation Yrotation
                  JOINT rRing3
                  {
                    OFFSET -2.506 0 0
                    CHANNELS 6 Xposition Yposition Zposition Zrotation Xrotation Yrotation
                    End Site
                    {
                      OFFSET -2.2023 0 0
                    }
                  }
                }
              }
              JOINT rPinky1
              {
                OFFSET -7.6901 0.6618 -3.9096
                CHANNELS 6 Xposition Yposition Zposition Zrotation Xrotation Yrotation
                JOINT rPinky2
                {
                  OFFSET -3.2119 0 0
                  CHANNELS 6 Xposition Yposition Zposition Zrotation Xrotation Yrotation
                  JOINT rPinky3
                  {
                    OFFSET -1.924 0 0
                    CHANNELS 6 Xposition Yposition Zposition Zrotation Xrotation Yrotation
                    End Site
                    {
                      OFFSET -1.7829 0 0
                    }
                  }
                }
              }
            }
          }
        }
      }
    }
  }
  JOINT lThigh
  {
    OFFSET 8.7379 -0.0029 0.0005
    CHANNELS 6 Xposition Yposition Zposition Zrotation Xrotation Yrotation
    JOINT lShin
    {
      OFFSET 0 -46.6676 0
      CHANNELS 6 Xposition Yposition Zposition Zrotation Xrotation Yrotation
      JOINT lFoot
      {
        OFFSET 0 -40.1476 0
        CHANNELS 6 Xposition Yposition Zposition Zrotation Xrotation Yrotation
        JOINT lToes
        {
          OFFSET 0 -8.8846 14.2294
          CHANNELS 6 Xposition Yposition Zposition Zrotation Xrotation Yrotation
          End Site
          {
            OFFSET 0 0 6.296
          }
        }
      }
    }
  }
  JOINT rThigh
  {
    OFFSET -8.7379 0.0029 -0.0005
    CHANNELS 6 Xposition Yposition Zposition Zrotation Xrotation Yrotation
    JOINT rShin
    {
      OFFSET 0 -46.6676 0
      CHANNELS 6 Xposition Yposition Zposition Zrotation Xrotation Yrotation
      JOINT rFoot
      {
        OFFSET 0 -40.1476 0
        CHANNELS 6 Xposition Yposition Zposition Zrotation Xrotation Yrotation
        JOINT rToes
        {
          OFFSET 0 -8.8846 14.2294
          CHANNELS 6 Xposition Yposition Zposition Zrotation Xrotation Yrotation
          End Site
          {
            OFFSET 0 0 6.296
          }
        }
      }
    }
  }
}
MOTION
Frames:	4
Frame Time:	0.0333333
9.3466 93.5719 23.3537 -0.767002 -6.48935 -33.2106 0 7.2397 0 0.537788 1.79613 -2.00397 0 16.546 0 1.25942 5.43136 -4.16298 0 34.2149 -1.77636e-15 -3.92178 27.4459 7.82436 0 6.2923 0 -10.231 -22.7061 29.5144 4.0639 26.6115 -1.1234 -1.1166 -4.11562 6.47754 14.1772 -2.84217e-14 3.55271e-15 -47.691 34.0606 -38.2024 26.1234 -1.42109e-14 -8.88178e-16 -0.683035 0.336684 -52.4778 27.7188 -2.84217e-14 -2.13163e-14 -164.971 -85.0715 179.987 2.2979 -0.4685 1.8313 62.9884 58.5132 -86.9283 5.2953 0 -1.42109e-14 -1.11146 5.68291 -1.18623 3.0181 1.42109e-14 0 15.4886 1.63203 1.04487 9.3793 0.2991 2.5924 -16.9521 -1.57062 2.69593 4.3461 7.10543e-15 1.42109e-14 -22.0282 -0.673313 4.87731 2.1666 7.10543e-15 -1.42109e-14 -13.1907 -0.32649 2.42093 9.4769 0.8376 0.2947 -16.8047 -4.36326 2.69961 4.772 -7.10543e-15 -1.42109e-14 -21.7472 -1.04955 5.92807 2.8722 -7.10543e-15 -1.42109e-14 -6.93209 -0.00710415 3.41099 8.6586 1.0176 -1.7016 -17.1359 2.33301 2.69715 4.5461 2.13163e-14 0 -22.3077 -0.670481 3.39908 2.506 1.42109e-14 -1.42109e-14 -4.40127 0.0358343 1.74004 7.6901 0.6618 -3.9096 -15.1571 -8.85987 6.77996 3.2119 0 0 -22.6145 0.00169647 4.0736 1.924 -1.42109e-14 1.42109e-14 -6.18974 -0.0604101 3.8947 -4.0677 26.6109 -1.1234 5.41897 1.70616 13.7135 -14.1772 -2.84217e-14 0 47.335 38.1645 16.6259 -26.1234 0 0 0.856936 0.777134 84.4046 -27.7188 0 0 -7.99357 -3.16425 -9.3161 -2.2979 -0.4684 1.8313 -51.8604 67.0963 71.4745 -5.2953 0 0 23.8082 -4.01821 -7.78091 -3.0181 0 0 -6.14077 -1.71554 -5.54274 -9.3793 0.2991 2.5924 19.9946 -1.73652 -3.32941 -4.3461 -7.10543e-15 2.84217e-14 24.9938 -0.949197 -5.5261 -2.1666 7.10543e-15 2.84217e-14 14.6774 -0.408265 -2.75673 -9.4769 0.8376 0.2947 19.8318 -4.52826 -3.33831 -4.772 0 1.42109e-14 24.652 -1.37693 -6.7071 -2.8722 0 -1.42109e-14 8.40072 -0.0621112 -3.83 -8.6586 1.0176 -1.7016 20.2216 2.16484 -3.33026 -4.5461 0 0 25.3174 -0.867267 -3.85943 -2.506 7.10543e-15 0 5.90928 0.0147932 -1.98986 -7.6901 0.6618 -3.9096 19.5596 -9.13985 -3.37073 -3.2119 0 0 23.9697 -1.83498 -8.62845 -1.924 -3.55271e-15 -1.42109e-14 7.61832 -0.124075 -4.43272 8.7379 -0.0029 0.0005 9.25735 -9.61223 28.5733 3.55271e-15 -46.6676 7.10543e-15 5.16005 25.2578 8.58568 -7.10543e-15 -40.1476 -7.10543e-15 -8.33932 -4.23177 11.8595 -1.77636e-15 -8.8846 14.2294 0.0001 0 3.18055e-15 -8.7379 0.0029 -0.0005 -15.0988 -1.87925 -17.9062 -1.77636e-15 -46.6676 0 -8.68087 25.0071 9.14463 -1.77636e-15 -40.1476 8.88178e-16 15.3632 -14.4452 -6.20461 0 -8.8846 14.2294 9.93923e-17 -9.93923e-17 3.18055e-15 
9.34059 93.5649 23.3332 -0.784817 -6.52263 -33.1494 0 7.2397 3.55271e-15 0.56274 1.79558 -2.03622 0 16.546 3.55271e-15 1.31058 5.429 -4.23222 3.55271e-15 34.2149 0 -4.00376 27.4912 7.84269 0 6.2923 -1.42109e-14 -10.2261 -22.6395 29.4758 4.0639 26.6115 -1.1234 -1.40753 -4.13644 6.62947 14.1772 0 3.55271e-15 -47.281 34.2701 -38.366 26.1234 0 0 -0.682238 0.33564 -52.3902 27.7188 1.42109e-14 0 -163.457 -85.0696 -178.679 2.2979 -0.4685 1.8313 62.9896 58.5118 -86.93 5.2953 -1.42109e-14 -1.42109e-14 -1.11191 5.68276 -1.18599 3.0181 0 1.42109e-14 15.4883 1.63196 1.04495 9.3793 0.2991 2.5924 -16.9674 -1.57131 2.69898 4.3461 -1.42109e-14 1.42109e-14 -22.0459 -0.674831 4.88102 2.1666 -1.42109e-14 0 -13.1996 -0.326938 2.42285 9.4769 0.8376 0.2947 -16.8198 -4.36395 2.70267 4.772 0 0 -21.7646 -1.05137 5.93259 2.8722 0 1.42109e-14 -6.94084 -0.00741135 3.4134 8.6586 1.0176 -1.7016 -17.1514 2.3323 2.7002 4.5461 1.42109e-14 0 -22.3256 -0.671558 3.40167 2.506 -7.10543e-15 0 -4.41025 0.0357354 1.74144 7.6901 0.6618 -3.9096 -15.172 -8.86046 6.78306 3.2119 1.42109e-14 0 -22.6315 0.000477774 4.07987 1.924 0 1.42109e-14 -6.19826 -0.0607481 3.89782 -4.0677 26.6109 -1.1234 5.20904 1.67271 13.7828 -14.1772 0 1.77636e-15 47.4654 38.2194 16.648 -26.1234 1.42109e-14 -1.77636e-15 0.856881 0.77649 84.3608 -27.7188 0 0 -8.05183 -3.08637 -9.32961 -2.2979 -0.4684 1.8313 -51.8802 67.0863 71.499 -5.2953 -1.42109e-14 0 23.8922 -4.06322 -7.80967 -3.0181 0 0 -6.09685 -1.73033 -5.56177 -9.3793 0.2991 2.5924 19.9947 -1.73652 -3.3294 -4.3461 0 1.42109e-14 24.9938 -0.949191 -5.52608 -2.1666 7.10543e-15 1.42109e-14 14.6773 -0.408252 -2.75674 -9.4769 0.8376 0.2947 19.8318 -4.52827 -3.3383 -4.772 0 1.42109e-14 24.6521 -1.37693 -6.70709 -2.8722 7.10543e-15 0 8.40071 -0.0621106 -3.83001 -8.6586 1.0176 -1.7016 20.2216 2.16483 -3.33025 -4.5461 -7.10543e-15 0 25.3174 -0.867243 -3.85941 -2.506 -7.10543e-15 -1.42109e-14 5.90927 0.0148053 -1.98987 -7.6901 0.6618 -3.9096 19.5596 -9.13986 -3.37072 -3.2119 0 -1.42109e-14 23.9697 -1.83497 -8.62844 -1.924 3.55271e-15 0 7.61831 -0.124061 -4.43273 8.7379 -0.0029 0.0005 9.27571 -9.60242 28.6537 -3.55271e-15 -46.6676 7.10543e-15 5.19597 25.2652 8.57372 -3.55271e-15 -40.1476 -7.10543e-15 -8.33798 -4.20189 11.6854 -1.77636e-15 -8.8846 14.2294 0.0001 0 -0 -8.7379 0.0029 -0.0005 -15.096 -1.85195 -17.9724 -1.77636e-15 -46.6676 0 -8.70811 25.0547 9.18192 -1.77636e-15 -40.1476 -2.66454e-15 15.3596 -14.4772 -6.19801 3.55271e-15 -8.8846 14.2294 -3.97569e-16 -9.93923e-17 -0 
9.34347 93.5652 23.3064 -0.791501 -6.54634 -33.1291 0 7.2397 -3.55271e-15 0.589911 1.79082 -2.03632 0 16.546 0 1.3697 5.41831 -4.23781 -3.55271e-15 34.2149 -1.77636e-15 -4.12776 27.5195 7.86399 7.10543e-15 6.2923 0 -10.2226 -22.6267 29.3834 4.0639 26.6115 -1.1234 -1.76076 -4.15592 6.77815 14.1772 0 0 -46.6451 34.6024 -38.6755 26.1234 -1.42109e-14 -2.66454e-15 -0.681293 0.334387 -52.2852 27.7188 1.42109e-14 -7.10543e-15 -161.515 -84.8496 -176.57 2.2979 -0.4685 1.8313 62.9909 58.5101 -86.9321 5.2953 0 0 -1.11209 5.6827 -1.18592 3.0181 1.42109e-14 0 15.4883 1.63193 1.04498 9.3793 0.2991 2.5924 -16.9898 -1.57239 2.70345 4.3461 7.10543e-15 0 -22.0695 -0.676824 4.886 2.1666 7.10543e-15 2.84217e-14 -13.2114 -0.327554 2.4254 9.4769 0.8376 0.2947 -16.842 -4.365 2.70716 4.772 -7.10543e-15 -1.42109e-14 -21.7878 -1.05379 5.93865 2.8722 -2.13163e-14 1.42109e-14 -6.95251 -0.00780868 3.41661 8.6586 1.0176 -1.7016 -17.1741 2.33121 2.70467 4.5461 0 1.42109e-14 -22.3495 -0.672955 3.40513 2.506 1.42109e-14 0 -4.42223 0.0355675 1.7433 7.6901 0.6618 -3.9096 -15.1937 -8.86139 6.78762 3.2119 0 -2.84217e-14 -22.6542 -0.00113589 4.08825 1.924 -7.10543e-15 -2.84217e-14 -6.20964 -0.0612037 3.90198 -4.0677 26.6109 -1.1234 4.93644 1.61972 13.8403 -14.1772 0 -1.77636e-15 47.6067 38.2969 16.6428 -26.1234 1.42109e-14 0 0.856883 0.776218 84.3433 -27.7188 0 -1.42109e-14 -8.20275 -2.95885 -9.44281 -2.2979 -0.4684 1.8313 -51.9051 67.0736 71.53 -5.2953 0 0 23.9809 -4.11111 -7.84057 -3.0181 0 0 -6.05036 -1.746 -5.58214 -9.3793 0.2991 2.5924 19.9946 -1.73651 -3.32942 -4.3461 0 -1.42109e-14 24.9938 -0.949178 -5.52609 -2.1666 0 0 14.6774 -0.408263 -2.75673 -9.4769 0.8376 0.2947 19.8318 -4.52826 -3.33832 -4.772 0 0 24.652 -1.37692 -6.70708 -2.8722 0 1.42109e-14 8.40074 -0.0621207 -3.83001 -8.6586 1.0176 -1.7016 20.2216 2.16483 -3.33027 -4.5461 0 0 25.3174 -0.867236 -3.85941 -2.506 0 1.42109e-14 5.90928 0.0148005 -1.98987 -7.6901 0.6618 -3.9096 19.5596 -9.13986 -3.37072 -3.2119 0 0 23.9697 -1.83495 -8.62844 -1.924 0 -1.42109e-14 7.61832 -0.124065 -4.43273 8.7379 -0.0029 0.0005 9.27531 -9.58368 28.7716 0 -46.6676 7.10543e-15 5.246 25.2198 8.55871 0 -40.1476 -7.10543e-15 -8.33327 -4.1465 11.5165 0 -8.8846 14.2294 0.0001 4.96962e-17 -0 -8.7379 0.0029 -0.0005 -15.1074 -1.84751 -17.9959 -1.77636e-15 -46.6676 -7.10543e-15 -8.69923 25.083 9.20114 0 -40.1476 8.88178e-16 15.3387 -14.4842 -6.20042 8.88178e-16 -8.8846 14.2294 -9.93923e-17 -9.93923e-17 3.18055e-15 
9.35016 93.5731 23.272 -0.779256 -6.54523 -33.1319 0 7.2397 0 0.606151 1.78221 -2.00651 0 16.546 0 1.40902 5.40054 -4.1818 -3.55271e-15 34.2149 0 -4.23687 27.5052 7.8766 0 6.2923 0 -10.2199 -22.6762 29.2722 4.0639 26.6115 -1.1234 -2.01865 -4.1663 6.86355 14.1772 0 0 -46.0536 34.9062 -38.9888 26.1234 0 3.9968e-15 -0.68042 0.333274 -52.1915 27.7188 0 1.42109e-14 -158.467 -84.4924 -172.956 2.2979 -0.4685 1.8313 62.9924 58.5082 -86.9344 5.2953 0 2.13163e-14 -1.11194 5.68275 -1.18598 3.0181 -1.42109e-14 0 15.4883 1.63196 1.04496 9.3793 0.2991 2.5924 -17.0158 -1.57361 2.70864 4.3461 0 0 -22.0955 -0.679075 4.89149 2.1666 0 0 -13.2245 -0.328204 2.42823 9.4769 0.8376 0.2947 -16.8677 -4.36621 2.71236 4.772 1.42109e-14 0 -21.8135 -1.05645 5.94533 2.8722 -7.10543e-15 0 -6.96542 -0.00823122 3.42017 8.6586 1.0176 -1.7016 -17.2005 2.32997 2.70986 4.5461 0 0 -22.3759 -0.674539 3.40895 2.506 -2.13163e-14 0 -4.43545 0.0354281 1.74537 7.6901 0.6618 -3.9096 -15.2191 -8.86246 6.7929 3.2119 0 -1.42109e-14 -22.6793 -0.00293151 4.09749 1.924 7.10543e-15 -1.42109e-14 -6.22219 -0.061706 3.90658 -4.0677 26.6109 -1.1234 4.69638 1.56314 13.8545 -14.1772 0 -1.77636e-15 47.7266 38.3884 16.6123 -26.1234 0 0 0.856859 0.776239 84.3435 -27.7188 1.42109e-14 1.42109e-14 -8.4579 -2.80308 -9.55352 -2.2979 -0.4684 1.8313 -51.9324 67.0597 71.5638 -5.2953 1.42109e-14 0 24.0651 -4.1568 -7.87038 -3.0181 2.84217e-14 0 -6.00622 -1.76087 -5.60177 -9.3793 0.2991 2.5924 19.9947 -1.73653 -3.32942 -4.3461 -7.10543e-15 1.42109e-14 24.9938 -0.949181 -5.5261 -2.1666 0 1.42109e-14 14.6774 -0.408266 -2.75673 -9.4769 0.8376 0.2947 19.8318 -4.52827 -3.33832 -4.772 0 1.42109e-14 24.652 -1.37693 -6.70709 -2.8722 0 -1.42109e-14 8.40072 -0.0621177 -3.83001 -8.6586 1.0176 -1.7016 20.2216 2.16483 -3.33026 -4.5461 0 -1.42109e-14 25.3174 -0.86726 -3.85942 -2.506 0 0 5.90926 0.0147989 -1.98987 -7.6901 0.6618 -3.9096 19.5596 -9.13988 -3.37073 -3.2119 0 0 23.9697 -1.83496 -8.62844 -1.924 -7.10543e-15 0 7.61831 -0.124071 -4.43273 8.7379 -0.0029 0.0005 9.25767 -9.57793 28.8633 0 -46.6676 7.10543e-15 5.28497 25.1275 8.54944 -3.55271e-15 -40.1476 -7.10543e-15 -8.31871 -4.06954 11.4193 -1.77636e-15 -8.8846 14.2294 0.0001 2.48481e-17 3.18055e-15 -8.7379 0.0029 -0.0005 -15.1147 -1.87442 -17.9865 -1.77636e-15 -46.6676 0 -8.6785 25.0826 9.19474 3.55271e-15 -40.1476 0 15.3141 -14.4656 -6.20893 1.77636e-15 -8.8846 14.2294 1.98785e-16 -9.93923e-17 -3.18055e-15 
